<?xml version="1.0" encoding="UTF-8" standalone="no"?>
<svg xmlns:xlink="http://www.w3.org/1999/xlink" height="191.25px" width="57.9px" xmlns="http://www.w3.org/2000/svg">
  <g transform="matrix(1.0, 0.0, 0.0, 1.0, 28.95, -0.4)">
    <path d="M-0.7 0.4 L0.75 0.4 0.75 133.35 -0.7 133.35 -0.7 0.4" fill="#44414a" fill-rule="evenodd" stroke="none"/>
    <path d="M-24.7 173.8 L-27.05 172.9 Q-26.15 173.05 -24.7 173.8" fill="#cb9585" fill-rule="evenodd" stroke="none"/>
    <path d="M-11.95 136.45 L-11.6 136.25 -8.8 135.0 -7.2 134.5 Q-3.4 133.45 -0.7 133.35 L0.75 133.35 0.8 133.35 Q3.35 133.45 6.65 134.75 L12.5 137.3 14.75 138.5 16.35 139.55 18.45 141.25 5.65 139.25 -7.55 138.65 -12.05 138.95 -16.45 139.45 -15.3 138.55 -13.1 137.1 -13.05 137.05 -12.0 136.5 -11.95 136.45" fill="#dd5d56" fill-rule="evenodd" stroke="none"/>
    <path d="M-17.6 140.35 L-16.45 139.45 -12.05 138.95 -7.55 138.65 5.65 139.25 18.45 141.25 18.5 141.25 19.8 142.5 22.2 145.2 23.45 146.9 25.3 149.75 26.85 152.65 Q0.85 150.35 -22.7 145.3 L-22.55 145.1 -20.4 142.75 -17.6 140.35" fill="#c65a54" fill-rule="evenodd" stroke="none"/>
    <path d="M-22.75 145.35 L-22.7 145.3 Q0.85 150.35 26.85 152.65 L27.5 154.2 27.9 155.2 27.9 155.25 28.05 155.7 28.1 155.75 28.4 156.75 28.4 156.8 Q28.95 158.95 28.95 160.85 L0.85 157.0 Q-15.3 155.0 -27.35 154.7 L-25.95 151.2 -25.0 149.05 -24.4 147.95 -24.35 147.85 -24.1 147.35 -24.05 147.35 -22.75 145.35" fill="#ee8f8a" fill-rule="evenodd" stroke="none"/>
    <path d="M-28.35 157.55 L-27.35 154.7 Q-15.3 155.0 0.85 157.0 L28.95 160.85 28.7 163.8 28.55 164.85 27.4 169.45 10.05 166.3 -4.8 163.8 -17.3 163.25 -28.95 162.95 -28.85 160.1 -28.8 159.7 -28.8 159.65 -28.35 157.55" fill="#c65a54" fill-rule="evenodd" stroke="none"/>
    <path d="M-24.7 173.8 Q-26.15 173.05 -27.05 172.9 L-27.9 169.4 Q-26.15 171.3 -18.75 173.5 -10.1 176.05 1.4 177.15 11.65 178.15 18.1 177.6 L21.95 177.15 24.45 176.85 23.05 179.55 17.45 179.65 Q11.5 179.75 6.15 179.5 -11.45 178.6 -24.7 173.8 M-28.55 166.35 L-28.55 166.3 -28.95 162.95 -17.3 163.25 -4.8 163.8 10.05 166.3 27.4 169.45 26.25 172.75 7.75 169.05 Q-9.2 165.65 -12.2 165.6 L-23.25 165.2 Q-27.3 165.0 -28.75 165.15 L-28.55 166.35" fill="#ea6f6b" fill-rule="evenodd" stroke="none"/>
    <path d="M-26.9 173.5 L-27.05 172.9 -24.7 173.8 Q-11.45 178.6 6.15 179.5 11.5 179.75 17.45 179.65 L23.05 179.55 21.1 182.25 20.3 183.1 19.2 184.15 18.05 185.15 17.8 185.35 16.7 186.25 15.15 187.35 Q-4.85 187.65 -21.3 182.85 L-21.35 182.8 -22.8 181.2 -24.7 178.6 -24.75 178.6 -24.95 178.25 -24.95 178.2 -25.4 177.5 -25.75 176.8 -26.05 176.1 -26.3 175.45 -26.35 175.4 -26.55 174.8 -26.55 174.75 -26.65 174.5 -26.65 174.45 -26.75 174.15 -26.9 173.5" fill="#ee8f8a" fill-rule="evenodd" stroke="none"/>
    <path d="M6.7 190.35 L6.3 190.45 -0.3 191.55 -6.85 191.2 -9.75 190.35 -9.85 190.3 -10.7 190.0 -11.65 189.6 -11.75 189.55 -12.6 189.15 -12.7 189.1 -14.45 188.15 -14.5 188.15 -15.4 187.6 -16.3 187.05 -18.0 185.8 -18.05 185.8 -18.9 185.1 -21.25 182.85 -21.3 182.85 Q-4.85 187.65 15.15 187.35 13.3 188.45 11.05 189.2 L6.7 190.35" fill="#c65a54" fill-rule="evenodd" stroke="none"/>
    <path d="M-12.3 168.4 Q-14.05 168.65 -14.2 169.85 -14.45 171.2 -12.1 172.3 -10.2 173.2 -8.55 173.3 L-7.35 173.4 -5.75 173.5 Q-3.75 173.4 -3.6 172.3 -3.4 171.25 -5.0 170.2 -6.4 169.25 -8.55 168.7 L-12.3 168.4 M-27.9 169.4 L-28.75 165.15 Q-27.3 165.0 -23.25 165.2 L-12.2 165.6 Q-9.2 165.65 7.75 169.05 L26.25 172.75 24.45 176.85 21.95 177.15 18.1 177.6 Q11.65 178.15 1.4 177.15 -10.1 176.05 -18.75 173.5 -26.15 171.3 -27.9 169.4" fill="#dd5d56" fill-rule="evenodd" stroke="none"/>
    <path d="M-14.2 169.85 Q-14.05 168.65 -12.3 168.4 L-8.55 168.7 Q-6.4 169.25 -5.0 170.2 -3.4 171.25 -3.6 172.3 -3.75 173.4 -5.75 173.5 L-7.35 173.4 -8.55 173.3 Q-10.2 173.2 -12.1 172.3 -14.45 171.2 -14.2 169.85" fill="#ee8f8a" fill-rule="evenodd" stroke="none"/>
  </g>
</svg>
