<?xml version="1.0" encoding="UTF-8" standalone="no"?>
<svg xmlns:xlink="http://www.w3.org/1999/xlink" height="338.0px" width="64.95px" xmlns="http://www.w3.org/2000/svg">
  <g transform="matrix(1.0, 0.0, 0.0, 1.0, 31.0, 61.0)">
    <use height="338.0" transform="matrix(1.0, 0.0, 0.0, 1.0, -31.0, -61.0)" width="64.95" xlink:href="#shape0"/>
  </g>
  <defs>
    <g id="shape0" transform="matrix(1.0, 0.0, 0.0, 1.0, 31.0, 61.0)">
      <path d="M0.05 213.05 L0.05 -61.0 3.05 -61.0 3.05 212.85 2.2 212.85 0.05 213.05" fill="#44414a" fill-rule="evenodd" stroke="none"/>
      <path d="M16.2 216.45 L17.75 217.0 20.65 218.55 22.4 219.8 25.75 223.1 28.95 227.35 25.95 226.85 21.4 226.4 16.75 226.2 9.9 225.9 3.05 226.1 0.15 225.6 -2.65 225.05 -9.0 224.65 -15.4 224.05 -21.5 223.4 -20.7 222.6 -17.7 219.9 -14.8 217.8 -12.8 216.7 1.7 216.8 16.2 216.45" fill="#5bb962" fill-rule="evenodd" stroke="none"/>
      <path d="M0.05 213.05 L2.2 212.85 7.7 213.55 13.85 215.65 13.95 215.65 14.65 215.95 14.75 215.95 16.2 216.45 1.7 216.8 -12.8 216.7 -11.05 215.95 -1.5 213.35 0.05 213.05 M31.65 255.05 L28.75 262.2 26.65 265.4 25.65 266.45 19.1 267.35 12.5 268.0 7.0 268.8 5.35 268.9 3.75 268.9 -10.0 269.55 -19.15 268.8 -20.05 267.9 -20.8 267.25 -24.45 262.8 -25.9 260.6 -25.9 260.5 -27.2 258.05 Q-10.0 260.0 2.55 259.6 18.6 259.15 31.65 255.05" fill="#84c768" fill-rule="evenodd" stroke="none"/>
      <path d="M28.95 227.35 L31.15 231.3 31.15 231.4 31.65 232.55 31.75 232.65 28.25 232.85 25.25 233.15 22.3 233.55 13.4 234.1 1.3 234.6 -10.65 235.0 Q-19.25 235.35 -29.2 234.9 L-27.45 230.85 -24.2 226.2 -21.5 223.4 -15.4 224.05 -9.0 224.65 -2.65 225.05 0.15 225.6 3.05 226.1 9.9 225.9 16.75 226.2 21.4 226.4 25.95 226.85 28.95 227.35" fill="#82c87f" fill-rule="evenodd" stroke="none"/>
      <path d="M31.75 232.65 L31.95 233.25 32.35 234.1 33.85 240.2 33.95 245.6 29.7 245.1 25.55 244.85 7.5 243.95 -10.65 242.6 -30.95 241.85 -30.65 239.5 -29.2 234.9 Q-19.25 235.35 -10.65 235.0 L1.3 234.6 13.4 234.1 22.3 233.55 25.25 233.15 28.25 232.85 31.75 232.65" fill="#64bf6a" fill-rule="evenodd" stroke="none"/>
      <path d="M33.95 245.6 L33.85 246.75 33.85 246.85 31.65 255.05 Q18.6 259.15 2.55 259.6 -10.0 260.0 -27.2 258.05 L-28.15 255.45 -30.25 248.7 Q-31.15 244.85 -30.95 241.95 L-30.95 241.85 -10.65 242.6 7.5 243.95 25.55 244.85 29.7 245.1 33.95 245.6" fill="#52ba55" fill-rule="evenodd" stroke="none"/>
      <path d="M25.65 266.45 L25.35 266.75 Q22.65 269.45 20.55 270.9 18.2 272.45 15.25 273.6 10.9 275.15 6.35 276.15 L-3.15 277.0 -6.2 276.5 -9.4 275.45 -12.6 273.8 -16.45 271.1 -16.55 271.0 -18.3 269.55 -19.15 268.8 -10.0 269.55 3.75 268.9 5.35 268.9 7.0 268.8 12.5 268.0 19.1 267.35 25.65 266.45" fill="#61b46a" fill-rule="evenodd" stroke="none"/>
    </g>
  </defs>
</svg>
