<?xml version="1.0" encoding="UTF-8" standalone="no"?>
<svg xmlns:xlink="http://www.w3.org/1999/xlink" height="203.25px" width="130.55px" xmlns="http://www.w3.org/2000/svg">
  <g transform="matrix(1.0, 0.0, 0.0, 1.0, 65.85, -1.0)">
    <use height="203.25" transform="matrix(1.0, 0.0, 0.0, 1.0, -65.85, 1.0)" width="130.55" xlink:href="#shape0"/>
  </g>
  <defs>
    <g id="shape0" transform="matrix(1.0, 0.0, 0.0, 1.0, 65.85, -1.0)">
      <path d="M0.65 122.3 L5.15 122.25 9.05 122.65 Q12.85 123.4 17.0 125.25 19.4 126.35 25.75 129.7 L26.5 130.1 26.5 130.15 26.9 130.35 27.1 130.5 27.25 130.6 Q2.9 127.85 -25.75 131.1 L-25.8 131.1 Q-23.35 129.05 -19.65 127.05 L-17.45 125.95 Q-13.95 124.2 -9.75 123.35 L-1.2 122.35 0.65 122.3 M41.5 150.4 L42.2 152.25 42.25 152.25 43.15 155.75 43.65 160.4 Q22.55 157.8 1.85 158.25 -18.45 158.75 -38.8 162.1 L-38.8 161.65 -38.75 160.2 -38.55 157.9 -38.1 155.05 Q-23.65 153.0 -10.85 152.05 L16.75 151.1 Q29.6 151.2 41.5 150.4 M42.3 173.45 L41.65 175.8 40.4 179.15 40.4 179.2 39.45 181.3 38.9 182.35 34.25 182.95 Q10.6 185.8 -14.35 186.0 L-23.7 185.95 Q-29.4 185.9 -33.05 186.0 L-33.65 185.0 -34.55 183.3 -35.05 182.1 -35.85 180.2 -36.55 178.05 2.9 176.25 22.6 174.75 42.3 173.45 M31.1 192.3 L30.05 193.15 28.75 194.1 25.2 196.45 21.35 198.7 Q16.35 201.4 14.2 202.3 10.35 203.85 6.25 204.1 1.35 204.4 -1.85 204.05 -5.5 203.6 -9.4 202.1 L-18.05 198.1 -18.15 198.1 -23.3 195.0 3.9 193.45 31.1 192.3" fill="#f4f37d" fill-rule="evenodd" stroke="none"/>
      <path d="M36.4 140.85 L38.1 144.05 39.3 146.25 41.1 149.55 41.5 150.4 Q29.6 151.2 16.75 151.1 L-10.85 152.05 Q-23.65 153.0 -38.1 155.05 L-37.15 151.15 -37.15 151.1 -34.25 144.0 Q-15.55 144.25 1.1 143.55 19.6 142.8 36.4 140.85 M38.9 182.35 L36.1 187.0 32.75 190.85 32.4 191.15 31.15 192.3 31.1 192.3 3.9 193.45 -23.3 195.0 -30.6 189.15 -33.05 186.0 Q-29.4 185.9 -23.7 185.95 L-14.35 186.0 Q10.6 185.8 34.25 182.95 L38.9 182.35" fill="#c3cd40" fill-rule="evenodd" stroke="none"/>
      <path d="M-25.75 131.1 Q2.9 127.85 27.25 130.6 29.5 132.05 31.55 134.15 33.6 136.35 35.5 139.35 L35.95 140.1 36.4 140.85 Q19.6 142.8 1.1 143.55 -15.55 144.25 -34.25 144.0 L-31.1 137.55 -29.8 135.55 -29.25 134.8 -29.1 134.6 -28.65 134.0 -26.45 131.65 -25.75 131.1 M43.65 160.4 L43.65 160.5 43.6 165.45 43.45 167.15 43.4 167.25 43.35 167.9 43.35 167.95 Q43.0 170.75 42.3 173.4 L42.3 173.45 22.6 174.75 2.9 176.25 -36.55 178.05 -36.55 178.0 -38.3 169.85 -38.8 163.45 -38.8 161.65 -38.8 162.1 Q-18.45 158.75 1.85 158.25 22.55 157.8 43.65 160.4" fill="#e3ea57" fill-rule="evenodd" stroke="none"/>
      <path d="M0.65 122.3 L-1.2 122.35 -1.2 1.0 0.65 1.0 0.65 122.3" fill="#44414a" fill-rule="evenodd" stroke="none"/>
      <path d="M-38.05 154.5 L-38.45 156.8 -38.45 156.85 -38.6 158.25 Q-49.05 161.05 -50.75 165.65 -51.1 166.55 -51.1 167.55 -51.05 173.45 -37.3 175.3 L-36.6 178.05 -35.85 180.25 -35.1 182.15 -34.55 183.3 -33.65 185.0 -33.05 186.0 -32.4 187.0 Q-47.7 185.55 -56.1 181.2 -64.85 176.7 -65.75 169.25 -66.25 165.55 -64.0 162.5 -61.25 158.65 -54.25 155.8 -47.65 153.05 -37.15 151.1 L-38.05 154.5" fill="#ffffff" fill-rule="evenodd" stroke="none"/>
      <path d="M58.95 151.7 Q64.8 155.05 64.7 160.4 64.6 167.9 58.05 173.25 51.7 178.45 39.15 181.8 L39.35 181.35 40.35 179.2 40.35 179.15 41.55 175.8 42.2 173.5 42.2 173.45 42.25 173.45 43.25 167.95 43.25 167.9 43.35 167.3 Q48.85 164.6 48.75 161.45 48.7 159.45 46.2 157.9 45.0 157.15 43.2 156.5 L42.95 155.15 42.8 154.4 42.75 154.35 42.55 153.45 42.5 153.4 41.9 151.6 41.6 150.9 41.6 150.8 41.4 150.4 41.2 150.0 41.15 149.9 40.65 148.9 40.15 147.9 40.1 147.85 39.55 146.85 Q52.7 148.1 58.95 151.7" fill="#ffffff" fill-rule="evenodd" stroke="none"/>
      <path d="M42.3 173.5 L41.65 175.8 41.65 175.85 40.4 179.2 39.45 181.35 39.25 181.8 34.25 183.0 Q10.6 185.85 -14.35 186.0 L-23.7 185.95 -33.05 186.05 -33.65 185.05 -34.55 183.3 -35.05 182.15 -35.85 180.25 -36.55 178.05 2.9 176.3 22.6 174.8 42.3 173.5" fill="#ffffff" fill-rule="evenodd" stroke="none"/>
      <path d="M-32.4 187.05 L-33.05 186.05 -23.7 185.95 -14.35 186.0 Q10.55 185.85 34.25 183.0 21.05 185.85 1.9 187.1 -17.9 188.35 -32.4 187.05" fill="#ffffff" fill-rule="evenodd" stroke="none"/>
      <path d="M43.35 167.3 L43.3 167.9 43.3 168.0 Q42.95 170.8 42.25 173.45 L42.25 173.5 22.55 174.8 2.85 176.25 -36.6 178.05 -37.35 175.3 -20.05 176.15 0.15 175.35 Q14.15 174.45 25.25 172.45 37.3 170.3 43.35 167.3" fill="#ffffff" fill-rule="evenodd" stroke="none"/>
    </g>
  </defs>
</svg>
