<?xml version="1.0" encoding="UTF-8" standalone="no"?>
<svg xmlns:xlink="http://www.w3.org/1999/xlink" height="226.15px" width="48.75px" xmlns="http://www.w3.org/2000/svg">
  <g transform="matrix(1.0, 0.0, 0.0, 1.0, 24.35, 113.05)">
    <use height="226.15" transform="matrix(1.0, 0.0, 0.0, 1.0, -24.35, -113.05)" width="48.75" xlink:href="#shape0"/>
  </g>
  <defs>
    <g id="shape0" transform="matrix(1.0, 0.0, 0.0, 1.0, 24.35, 113.05)">
      <path d="M-0.15 -113.05 L1.4 -113.05 1.4 63.4 1.25 63.9 0.65 63.4 Q0.3 63.4 -0.05 63.75 L-0.15 63.4 -0.15 -113.05" fill="#464645" fill-rule="evenodd" stroke="none"/>
      <path d="M0.65 63.45 L1.25 63.9 Q2.4 65.35 4.8 72.55 7.2 79.6 7.55 79.95 L10.5 80.5 16.15 80.9 Q24.1 81.5 24.4 82.35 24.7 83.35 18.15 88.45 L13.55 92.1 Q11.4 93.9 11.25 94.45 11.15 95.05 12.2 97.95 L14.5 103.85 Q17.7 112.15 16.5 113.0 14.85 113.7 7.9 109.3 L3.1 106.15 Q0.8 104.65 0.35 104.65 -0.15 104.6 -2.5 106.0 L-7.35 109.0 Q-14.2 113.15 -15.2 112.3 -16.5 111.25 -13.7 103.15 L-11.65 97.45 Q-10.7 94.7 -10.85 94.25 -10.95 93.85 -13.25 92.1 L-18.05 88.6 Q-24.8 83.6 -24.3 82.4 -23.75 81.0 -15.9 80.5 L-10.35 80.25 -7.3 79.95 Q-6.9 79.7 -6.0 77.45 L-4.15 72.5 Q-1.45 65.05 -0.05 63.8 0.3 63.45 0.65 63.45" fill="#e5f0c2" fill-rule="evenodd" stroke="none"/>
    </g>
  </defs>
</svg>
